<svg xmlns="http://www.w3.org/2000/svg" version="1.1" xmlns:xlink="http://www.w3.org/1999/xlink" xmlns:svgjs="http://svgjs.dev/svgjs" width="1500" height="1500" viewBox="0 0 1500 1500"><rect width="1500" height="1500" fill="#19b651"></rect><g transform="matrix(0.6666666666666666,0,0,0.6666666666666666,249.87482587539068,654.7810884353742)"><svg viewBox="0 0 259 49" data-background-color="#19b651" preserveAspectRatio="xMidYMid meet" height="283" width="1500" xmlns="http://www.w3.org/2000/svg" xmlns:xlink="http://www.w3.org/1999/xlink"><g id="tight-bounds" transform="matrix(1,0,0,1,0.03242009827380343,0.22999999999998977)"><svg viewBox="0 0 258.9351598034524 48.54" height="48.54" width="258.9351598034524"><g><svg viewBox="0 0 258.9351598034524 48.54" height="48.54" width="258.9351598034524"><g><svg viewBox="0 0 258.9351598034524 48.54" height="48.54" width="258.9351598034524"><g id="textblocktransform"><svg viewBox="0 0 258.9351598034524 48.54" height="48.54" width="258.9351598034524" id="textblock"><g><svg viewBox="0 0 258.9351598034524 48.54" height="48.54" width="258.9351598034524"><g><svg><g></g><g></g></svg></g><g><svg><g><svg></svg></g><g></g></svg></g><g id="text-0"><svg viewBox="0 0 258.9351598034524 48.54" height="48.54" width="258.9351598034524"><g transform="matrix(1,0,0,1,0,0)"><svg width="207.08152777777778" viewBox="3.33 -29.58 127.98 30" height="48.54" data-palette-color="#e9f443"><path d="M7.08 0L3.33 0 3.33-20.83 6.81-20.83 6.81-17.01Q7.92-18.85 9.76-19.95 11.6-21.04 14.13-21.04L14.13-21.04 15.07-17.29Q14.41-17.5 13.54-17.5L13.54-17.5Q10.63-17.5 8.85-15.64 7.08-13.78 7.08-10.35L7.08-10.35 7.08 0ZM22.71 0L18.96 0 18.96-20.83 22.71-20.83 22.71 0ZM20.83-24.58L20.83-24.58Q19.79-24.58 19.06-25.31 18.33-26.04 18.33-27.08L18.33-27.08Q18.33-28.16 19.06-28.87 19.79-29.58 20.83-29.58L20.83-29.58Q21.91-29.58 22.62-28.87 23.33-28.16 23.33-27.08L23.33-27.08Q23.33-26.04 22.62-25.31 21.91-24.58 20.83-24.58ZM42.5 0L27.43 0 37.29-17.5 28.05-17.5 28.05-20.83 43.05-20.83 33.19-3.33 42.5-3.33 42.5 0ZM55.72 0.42L55.72 0.42Q53.53 0.42 51.62-0.68 49.71-1.77 48.53-3.85 47.35-5.94 47.35-8.85L47.35-8.85 47.35-20.83 51.1-20.83 51.1-9.38Q51.1-6.91 52.58-5.02 54.06-3.13 56.73-3.13L56.73-3.13Q58.92-3.13 60.63-4.7 62.35-6.28 62.35-9.27L62.35-9.27 62.35-20.83 66.1-20.83 66.1 0 62.63 0 62.63-3.37Q61.49-1.53 59.66-0.56 57.84 0.42 55.72 0.42ZM76.52 0L72.77 0 72.77-20.83 76.24-20.83 76.24-17.85Q77.39-19.55 79.14-20.4 80.89-21.25 82.84-21.25L82.84-21.25Q84.96-21.25 86.73-20.26 88.5-19.27 89.57-17.5L89.57-17.5Q90.79-19.38 92.72-20.31 94.64-21.25 96.8-21.25L96.8-21.25Q99.16-21.25 101.12-20.14 103.08-19.03 104.24-17.03 105.41-15.03 105.41-12.33L105.41-12.33 105.41 0 101.66 0 101.66-11.88Q101.66-14.72 100.04-16.2 98.43-17.67 96.31-17.67L96.31-17.67Q94.99-17.67 93.76-17.08 92.52-16.49 91.74-15.24 90.96-13.99 90.96-11.98L90.96-11.98 90.96 0 87.21 0 87.21-11.88Q87.21-13.85 86.43-15.14 85.65-16.42 84.42-17.07 83.18-17.71 81.87-17.71L81.87-17.71Q80.58-17.71 79.35-17.12 78.12-16.53 77.32-15.28 76.52-14.03 76.52-11.98L76.52-11.98 76.52 0ZM121.58 0.42L121.58 0.42Q118.32 0.42 115.73-1.04 113.15-2.5 111.67-5.02 110.2-7.53 110.2-10.63L110.2-10.63Q110.2-13.58 111.62-15.99 113.04-18.4 115.46-19.83 117.87-21.25 120.79-21.25L120.79-21.25Q123.67-21.25 126.06-19.88 128.46-18.51 129.88-16.18 131.31-13.85 131.31-10.9L131.31-10.9 131.31-9.38 117.7-9.38Q116.79-9.38 115.86-9.44 114.92-9.51 114.02-9.65L114.02-9.65Q114.4-6.88 116.53-5 118.67-3.13 121.62-3.13L121.62-3.13Q123.6-3.13 125.3-4.03 127-4.93 128.04-6.42L128.04-6.42 129.08-2.15Q127.59-0.94 125.66-0.26 123.74 0.42 121.58 0.42ZM113.91-12.19L113.91-12.19Q115.79-12.5 117.7-12.5L117.7-12.5 124.61-12.5Q125.37-12.5 126.12-12.45 126.86-12.4 127.63-12.33L127.63-12.33Q127.14-14.76 125.2-16.34 123.25-17.92 120.79-17.92L120.79-17.92Q118.25-17.92 116.34-16.23 114.43-14.55 113.91-12.19Z" opacity="1" transform="matrix(1,0,0,1,0,0)" fill="#e9f443" class="wordmark-text-0" data-fill-palette-color="primary"></path></svg></g><g><svg xmlns="http://www.w3.org/2000/svg" xmlns:xlink="http://www.w3.org/1999/xlink" version="1.1" x="218.5415277777778" y="0" viewBox="13.05 5.598 73.9 88.80375" enable-background="new 0 0 100 100" xml:space="preserve" height="48.54" width="40.39363202567459" class="icon-dxe-0" data-fill-palette-color="accent" id="dxe-0"><path fill-rule="evenodd" clip-rule="evenodd" d="M72.839 13.551A30 30 0 0 1 76.005 16.437C83.302 23.687 86.95 32.425 86.95 42.654 86.95 52.836 83.302 61.528 76.005 68.731A3.5 3.5 0 0 0 75.653 69.399 2.7 2.7 0 0 0 74.88 70.103L53.976 92.097C51.279 95.17 48.616 95.17 45.988 92.097L24.345 69.223 23.993 68.731C16.697 61.528 13.05 52.836 13.05 42.654 13.05 32.425 16.697 23.687 23.993 16.437A27 27 0 0 1 27.231 13.551C33.682 8.249 41.295 5.598 50.069 5.598 58.75 5.598 66.34 8.249 72.839 13.551M82.058 42.548C82.058 33.75 78.915 26.208 72.627 19.921S58.774 10.49 49.929 10.49C41.132 10.49 33.589 13.634 27.302 19.921S17.87 33.75 17.87 42.548 21.015 58.888 27.302 65.175C33.589 71.463 41.132 74.606 49.929 74.606 58.775 74.606 66.34 71.462 72.627 65.175 78.915 58.889 82.058 51.346 82.058 42.548M51.196 43.569C51.477 43.452 51.876 43.311 52.392 43.147L60.098 40.86C60.38 41.822 60.78 43.264 61.295 45.188 61.412 45.798 61.436 46.396 61.365 46.983A4.5 4.5 0 0 1 60.52 48.566 22 22 0 0 0 59.605 49.587 5.7 5.7 0 0 1 58.584 50.467C54.901 53.188 50.772 54.174 46.197 53.423 42.936 52.907 40.155 51.523 37.856 49.271 37.176 48.59 36.718 47.887 36.484 47.16 36.25 46.362 36.273 45.506 36.554 44.591 36.577 44.38 36.93 43.136 37.61 40.861L38.173 41.037C40.284 41.694 43.44 42.656 47.639 43.923 48.484 44.157 49.27 44.157 49.996 43.923 50.352 43.803 50.751 43.686 51.196 43.569M62.422 38.396C61.671 37.598 60.639 36.883 59.325 36.25A27.3 27.3 0 0 0 54.398 34.314C52.897 33.868 51.149 33.493 49.155 33.188 48.685 33.07 48.287 33.105 47.958 33.293 47.677 33.504 47.513 33.762 47.466 34.067 47.443 34.396 47.548 34.677 47.782 34.912 47.97 35.146 48.334 35.311 48.874 35.405 51.267 35.757 53.565 36.332 55.77 37.13 56.24 37.294 56.814 37.54 57.495 37.869 57.87 38.033 58.433 38.268 59.184 38.573L59.114 38.749A1 1 0 0 1 58.903 38.819 967 967 0 0 1 49.296 41.775 1.6 1.6 0 0 1 48.803 41.846C48.64 41.846 48.463 41.823 48.275 41.775 47.314 41.447 44.992 40.719 41.308 39.593 34.058 37.411 29.191 35.933 26.704 35.159A1.8 1.8 0 0 1 26.281 34.913C26.07 34.796 25.953 34.679 25.929 34.561 25.765 34.327 25.765 34.092 25.929 33.857 26.046 33.599 26.281 33.412 26.633 33.294 36.557 30.244 43.782 28.039 48.311 26.678 48.475 26.655 48.674 26.642 48.91 26.642 49.074 26.642 49.262 26.654 49.473 26.678 53.438 27.898 59.362 29.704 67.244 32.097L71.15 33.364C71.619 33.481 71.853 33.716 71.853 34.068 71.853 34.326 71.736 34.608 71.501 34.913A1.4 1.4 0 0 1 71.255 35.089C71.091 35.136 70.997 35.159 70.974 35.159L64.886 37.024A7 7 0 0 1 64.358 37.2C64.522 37.482 64.757 37.881 65.062 38.397 65.32 38.89 65.542 39.277 65.73 39.558 65.847 39.793 66.011 39.969 66.222 40.086 66.81 40.367 67.185 40.813 67.349 41.423 67.56 42.009 67.478 42.561 67.103 43.077A1.9 1.9 0 0 0 66.821 43.746C66.775 43.957 66.799 44.18 66.892 44.414 66.892 44.484 66.904 44.625 66.927 44.836 66.974 45 66.997 45.117 66.997 45.188A17.9 17.9 0 0 0 69.53 50.854C70.634 52.473 72.028 53.986 73.718 55.394L74.14 55.711A21 21 0 0 1 72.452 57.189 7.4 7.4 0 0 1 70.552 58.174C69.942 58.362 69.332 58.421 68.723 58.35 68.183 58.303 67.666 58.103 67.174 57.751 66.821 57.47 66.458 57.047 66.082 56.484A10 10 0 0 1 64.957 54.021 19 19 0 0 1 64.358 51.382C64.076 49.247 64.017 46.877 64.181 44.274A0.56 0.56 0 0 0 64.111 43.887 1 1 0 0 0 63.865 43.5C63.513 43.195 63.291 42.796 63.197 42.303 63.127 41.857 63.209 41.435 63.443 41.036 63.607 40.801 63.666 40.567 63.619 40.332 63.619 40.167 63.549 39.945 63.408 39.663A21 21 0 0 0 62.422 38.396" fill="#e9f443" data-fill-palette-color="accent"></path></svg></g></svg></g></svg></g></svg></g></svg></g><g></g></svg></g><defs></defs></svg><rect width="258.9351598034524" height="48.54" fill="none" stroke="none" visibility="hidden"></rect></g></svg></g></svg>